<?xml version="1.0" encoding="UTF-8"?>
<svg width="50" height="50" xmlns="http://www.w3.org/2000/svg" xmlns:svg="http://www.w3.org/2000/svg">

 <g>
  <title>Layer 1</title>
  <path id="svg_1" d="m27.799999,9.9c0,0.700001 -0.599998,1.200001 -1.4,1.200001l-2.699999,0c-0.800001,0 -1.400002,-0.5 -1.400002,-1.200001l0,-8.7c0,-0.7 0.6,-1.2 1.400002,-1.2l2.699999,0c0.800001,0 1.4,0.5 1.4,1.2l0,8.7z" fill="#414141"/>
  <path opacity="0" id="svg_2" d="m27.799999,48.799999c0,0.700001 -0.599998,1.200001 -1.4,1.200001l-2.699999,0c-0.800001,0 -1.400002,-0.5 -1.400002,-1.200001l0,-8.700001c0,-0.699997 0.6,-1.199997 1.400002,-1.199997l2.699999,0c0.800001,0 1.4,0.5 1.4,1.199997l0,8.700001z" fill="#000000"/>
  <path opacity="0.6" id="svg_3" d="m13.3,15c0.599999,0.3 0.7,1.200001 0.3,1.799999l-1.3,2.300001c-0.400001,0.699999 -1.2,1 -1.8,0.6l-7.5,-4.200001c-0.6,-0.3 -0.7,-1.2 -0.3,-1.8l1.3,-2.3c0.4,-0.7 1.2,-1 1.8,-0.599999l7.5,4.2z" fill="#000000"/>
  <path opacity="0.3" id="svg_4" d="m47.100113,34.399887c0.599998,0.299999 0.700001,1.200001 0.299999,1.799999l-1.299999,2.299999c-0.400002,0.700001 -1.200001,1 -1.799999,0.600002l-7.5,-4.200001c-0.600002,-0.299999 -0.700001,-1.200001 -0.299999,-1.799999l1.299999,-2.300001c0.399998,-0.699999 1.200001,-1 1.799999,-0.6l7.5,4.200001z" fill="#000000"/>
  <path opacity="0.75" id="svg_5" d="m19.799999,10.5c0.300001,0.6 0,1.4 -0.599998,1.8l-2.300001,1.3c-0.699999,0.4 -1.5,0.299999 -1.799999,-0.3l-4.3,-7.5c-0.3,-0.6 0,-1.4 0.599999,-1.8l2.3,-1.3c0.7,-0.4 1.5,-0.3 1.8,0.3l4.299999,7.5z" fill="#000000"/>
  <path opacity="0.15" id="svg_6" d="m39.299999,44.200001c0.299999,0.599998 0,1.399998 -0.599998,1.799999l-2.299999,1.299999c-0.700001,0.400002 -1.5,0.299999 -1.800003,-0.299999l-4.299999,-7.5c-0.299999,-0.599998 0,-1.400002 0.6,-1.799999l2.300001,-1.299999c0.700001,-0.400002 1.5,-0.300003 1.799999,0.299999l4.299999,7.5z" fill="#000000"/>
  <path opacity="0.3" id="svg_7" d="m10.5,30.200001c0.6,-0.300001 1.4,0 1.8,0.599998l1.3,2.299999c0.4,0.700001 0.299999,1.5 -0.3,1.800003l-7.5,4.299999c-0.6,0.299999 -1.4,0 -1.8,-0.600002l-1.3,-2.299999c-0.4,-0.700001 -0.3,-1.5 0.3,-1.799999l7.5,-4.299999z" fill="#000000"/>
  <path opacity="0.6" id="svg_8" d="m44.200001,10.7c0.599998,-0.3 1.399998,0 1.799999,0.6l1.299999,2.3c0.400002,0.7 0.299999,1.5 -0.299999,1.799999l-7.5,4.300001c-0.599998,0.299999 -1.400002,0 -1.799999,-0.6l-1.299999,-2.300001c-0.400002,-0.699999 -0.300003,-1.499999 0.299999,-1.799999l7.5,-4.3z" fill="#000000"/>
  <path opacity="0.15" id="svg_9" d="m15,36.700001c0.3,-0.600002 1.200001,-0.700001 1.799999,-0.299999l2.300001,1.299999c0.699999,0.399998 1,1.200001 0.6,1.799999l-4.200001,7.5c-0.3,0.599998 -1.2,0.700001 -1.8,0.299999l-2.3,-1.299999c-0.7,-0.400002 -1,-1.200001 -0.599999,-1.799999l4.2,-7.5z" fill="#000000"/>
  <path opacity="0.75" id="svg_10" d="m34.5,3c0.299999,-0.6 1.200001,-0.7 1.799999,-0.3l2.299999,1.3c0.700001,0.4 1,1.2 0.600002,1.8l-4.200001,7.5c-0.299999,0.599999 -1.200001,0.7 -1.799999,0.3l-2.300001,-1.3c-0.699999,-0.400001 -1,-1.2 -0.6,-1.8l4.200001,-7.5z" fill="#000000"/>
  <path opacity="0.45" id="svg_11" d="m40.200111,27.799999c-0.699997,0 -1.199997,-0.599998 -1.199997,-1.4l0,-2.699999c0,-0.800001 0.5,-1.400002 1.199997,-1.400002l8.700001,0c0.700001,0 1.200001,0.6 1.200001,1.400002l0,2.699999c0,0.800001 -0.5,1.4 -1.200001,1.4l-8.700001,0z" fill="#000000"/>
  <path opacity="0.45" id="svg_12" d="m1.2,27.799999c-0.7,0 -1.2,-0.599998 -1.2,-1.4l0,-2.699999c0,-0.800001 0.5,-1.400002 1.2,-1.400002l8.7,0c0.700001,0 1.200001,0.6 1.200001,1.400002l0,2.699999c0,0.800001 -0.5,1.4 -1.200001,1.4l-8.7,0z" fill="#000000"/>
 </g>
</svg>